<svg xmlns="http://www.w3.org/2000/svg" width="84" height="26" viewBox="0 0 84 26">
    <path fill="#5A7C8E" fill-rule="evenodd" d="M57.96.084v25.032H84V.084H57.96zm20.328 19.32c-1.848 1.008-3.948 1.512-6.3 1.512-1.904 0-3.528-.392-4.872-1.176a9.673 9.673 0 0 1-3.276-3.108c-.784-1.568-1.176-3.052-1.176-4.452 0-2.576.91-4.718 2.73-6.426 1.82-1.708 4.018-2.562 6.594-2.562 1.904 0 3.948.476 6.132 1.428l-.084 2.688c-2.016-1.176-3.976-1.764-5.88-1.764-2.016 0-3.682.63-4.998 1.89-1.316 1.26-1.974 2.814-1.974 4.662 0 1.848.672 3.402 2.016 4.662 1.344 1.26 2.996 1.89 4.956 1.89 2.072 0 4.116-.644 6.132-1.932v2.688zm-49.224 5.712H55.02V.084H29.064v25.032zm7.98-21.252h4.452c1.512 0 2.66.196 3.444.588.784.392 1.372.91 1.764 1.554.392.644.588 1.414.588 2.31 0 1.68-.868 2.884-2.604 3.612 1.288.224 2.282.728 2.982 1.512.7.784 1.078 1.764 1.134 2.94-.056.896-.308 1.68-.756 2.352-.448.672-1.106 1.232-1.974 1.68-.868.448-1.946.672-3.234.672h-5.88V3.864h.084zm6.888 6.636c.56-.56.84-1.232.84-2.016 0-1.68-1.064-2.52-3.192-2.52h-2.1v5.208h1.596c1.344 0 2.296-.224 2.856-.672zm1.932 7.056c.28-.448.42-.896.42-1.344-.056-.616-.224-1.134-.504-1.554-.28-.42-.714-.742-1.302-.966-.588-.224-1.498-.308-2.73-.252H39.48v5.46h2.436c1.232 0 2.128-.084 2.688-.252.56-.336.98-.7 1.26-1.092zM0 25.116h26.04V.084H0v25.032zM7.896 3.864h4.536c1.456 0 2.59.182 3.402.546.812.364 1.414.882 1.806 1.554.392.672.616 1.456.672 2.352-.056 1.68-.952 2.912-2.688 3.696 1.288.224 2.296.728 3.024 1.512.728.784 1.092 1.736 1.092 2.856 0 .952-.224 1.764-.672 2.436-.448.672-1.106 1.218-1.974 1.638-.868.42-1.974.63-3.318.63h-5.88V3.864zm6.972 6.636c.56-.504.84-1.176.84-2.016 0-1.68-1.064-2.52-3.192-2.52h-2.1v5.208h1.68c1.288 0 2.212-.224 2.772-.672zm1.932 7.14c.224-.448.336-.952.336-1.512s-.14-1.008-.42-1.344c-.336-.504-.756-.854-1.26-1.05-.504-.196-1.428-.294-2.772-.294h-2.268v5.46h2.436c1.288 0 2.198-.112 2.73-.336.532-.224.938-.532 1.218-.924z" opacity=".4"/>
</svg>
