<?xml version="1.0" encoding="utf-8"?>
<!-- Generator: Adobe Illustrator 23.1.1, SVG Export Plug-In . SVG Version: 6.00 Build 0)  -->
<svg version="1.1" id="Capa_1" xmlns="http://www.w3.org/2000/svg" xmlns:xlink="http://www.w3.org/1999/xlink" x="0px" y="0px"
	 viewBox="0 0 84 26" style="enable-background:new 0 0 84 26;" xml:space="preserve">
<style type="text/css">
	.st0{opacity:0.4;fill-rule:evenodd;clip-rule:evenodd;fill:#5A7C8E;enable-background:new    ;}
</style>
<path class="st0" d="M58,0.5v25h26v-25H58z M78.3,19.8c-1.8,1-3.9,1.5-6.3,1.5c-1.9,0-3.5-0.4-4.9-1.2c-1.3-0.8-2.4-1.8-3.3-3.1
	c-0.8-1.6-1.2-3.1-1.2-4.5c0-2.6,0.9-4.7,2.7-6.4s4-2.6,6.6-2.6c1.9,0,3.9,0.5,6.1,1.4L78,7.7c-2-1.2-4-1.8-5.9-1.8
	c-2,0-3.7,0.6-5,1.9s-2,2.8-2,4.7s0.7,3.4,2,4.7s3,1.9,5,1.9c2.1,0,4.1-0.6,6.1-1.9C78.3,17.1,78.3,19.8,78.3,19.8z M29.1,25.5h26
	v-25h-26C29.1,0.5,29.1,25.5,29.1,25.5z M37,4.3h4.5c1.5,0,2.7,0.2,3.4,0.6c0.8,0.4,1.4,0.9,1.8,1.6s0.6,1.4,0.6,2.3
	c0,1.7-0.9,2.9-2.6,3.6c1.3,0.2,2.3,0.7,3,1.5c0.7,0.8,1.1,1.8,1.1,2.9c-0.1,0.9-0.3,1.7-0.8,2.4c-0.4,0.7-1.1,1.2-2,1.7
	s-1.9,0.7-3.2,0.7H37L37,4.3C37,4.3,37,4.3,37,4.3z M43.9,10.9c0.6-0.6,0.8-1.2,0.8-2c0-1.7-1.1-2.5-3.2-2.5h-2.1v5.2h1.6
	C42.4,11.6,43.4,11.3,43.9,10.9z M45.9,18c0.3-0.4,0.4-0.9,0.4-1.3c-0.1-0.6-0.2-1.1-0.5-1.6c-0.3-0.4-0.7-0.7-1.3-1
	s-1.5-0.3-2.7-0.3h-2.3v5.5h2.4c1.2,0,2.1-0.1,2.7-0.3C45.2,18.7,45.6,18.3,45.9,18z M0,25.5h26v-25H0V25.5z M7.9,4.3h4.5
	c1.5,0,2.6,0.2,3.4,0.5s1.4,0.9,1.8,1.6s0.6,1.5,0.7,2.4c-0.1,1.7-1,2.9-2.7,3.7c1.3,0.2,2.3,0.7,3,1.5s1.1,1.7,1.1,2.9
	c0,1-0.2,1.8-0.7,2.4s-1.1,1.2-2,1.6s-2,0.6-3.3,0.6H7.9C7.9,21.5,7.9,4.3,7.9,4.3z M14.9,10.9c0.6-0.5,0.8-1.2,0.8-2
	c0-1.7-1.1-2.5-3.2-2.5h-2.1v5.2h1.7C13.4,11.6,14.3,11.3,14.9,10.9z M16.8,18c0.2-0.4,0.3-1,0.3-1.5c0-0.6-0.1-1-0.4-1.3
	c-0.3-0.5-0.8-0.9-1.3-1.1c-0.5-0.2-1.4-0.3-2.8-0.3h-2.3v5.5h2.4c1.3,0,2.2-0.1,2.7-0.3S16.5,18.4,16.8,18z"/>
</svg>
