<svg xmlns="http://www.w3.org/2000/svg" width="85" height="16" viewBox="0 0 85 16">
    <path fill="#5A7C8E" fill-rule="evenodd" d="M.5.208h7.056c.952 0 1.75.28 2.394.84.644.56 1.05 1.288 1.218 2.184.168.896.042 1.722-.378 2.478-.42.756-1.022 1.246-1.806 1.47l-.168.084c1.512.392 2.38 1.316 2.604 2.772.224 1.232.028 2.282-.588 3.15-.616.868-1.54 1.358-2.772 1.47-.336.056-.896.084-1.68.084H.5V.208zm3.192 11.76l.084.084h2.94c.504-.056.896-.224 1.176-.504.28-.28.434-.658.462-1.134.028-.476-.098-.854-.378-1.134-.28-.28-.672-.476-1.176-.588H3.692v3.276zM3.608 5.92H6.8c.672-.112 1.078-.448 1.218-1.008.14-.56.056-1.036-.252-1.428a1.474 1.474 0 0 0-1.218-.588h-2.94V5.92zm53.256 9.072c-.616-.112-.98-.168-1.092-.168-1.4-.336-2.464-1.05-3.192-2.142-.728-1.092-1.008-2.338-.84-3.738.224-2.352 1.4-3.92 3.528-4.704 1.624-.56 3.15-.448 4.578.336 1.428.784 2.282 2.156 2.562 4.116l.084 1.68h-7.896c.168 1.008.7 1.68 1.596 2.016 1.288.56 2.632.392 4.032-.504l.168-.084c0-.056.028-.084.084-.084l1.26 1.848-1.176.756c-.728.336-1.54.56-2.436.672h-1.26zM59.72 8.44c.056-.672-.196-1.218-.756-1.638-.56-.42-1.232-.63-2.016-.63-.616.056-1.176.308-1.68.756s-.728.952-.672 1.512h5.124zm8.484 6.552l-.672-.084-.672-.168a5.028 5.028 0 0 1-2.646-1.68c-.7-.84-1.078-1.82-1.134-2.94-.224-2.184.448-3.892 2.016-5.124.896-.672 1.96-1.036 3.192-1.092 1.232-.056 2.324.252 3.276.924 1.064.784 1.736 1.904 2.016 3.36.112.28.168.616.168 1.008v1.176h-7.812c.056.56.28 1.036.672 1.428.784.784 1.82 1.064 3.108.84a3.73 3.73 0 0 0 2.016-.924l1.26 1.848-.924.672a7.817 7.817 0 0 1-2.604.756h-1.26zM65.936 8.44h5.124c.056-.616-.182-1.148-.714-1.596-.532-.448-1.162-.672-1.89-.672s-1.344.238-1.848.714-.728.994-.672 1.554zm-49.56 6.552c-.56-.112-.896-.168-1.008-.168-1.008-.224-1.806-.7-2.394-1.428-.588-.728-.882-1.624-.882-2.688V4.24h2.772v6.132c0 1.008.364 1.68 1.092 2.016.952.448 1.82.364 2.604-.252.504-.336.784-.924.84-1.764V4.24h2.688v6.384c0 1.232-.35 2.24-1.05 3.024-.7.784-1.638 1.232-2.814 1.344l-.42.084-1.428-.084zm26.292-.252V.208h10.08v2.268c.056.28-.056.42-.336.42h-6.636V5.92h4.872c.28 0 .42.14.42.42v2.268h-5.292v6.132h-3.108zm31.752 0V4.576c0-.224.028-.35.084-.378.056-.028.196-.042.42-.042h2.268c.896 0 1.652.028 2.268.084 2.352.168 3.92 1.26 4.704 3.276a5.448 5.448 0 0 1 .168 3.276c-.28 1.12-.84 2.016-1.68 2.688-.952.784-2.072 1.204-3.36 1.26H74.42zm2.688-2.268h1.512c.896 0 1.624-.238 2.184-.714s.868-1.162.924-2.058c.112-.672.014-1.288-.294-1.848s-.742-.952-1.302-1.176c-.392-.168-.896-.252-1.512-.252h-1.512v6.048zm-49.392-5.88h-4.704V4.24h8.568v1.344c0 .392-.14.728-.42 1.008l-4.452 5.712h4.872v2.436h-8.568v-2.016c0-.056.056-.168.168-.336l4.368-5.46.168-.336zm4.62 0v-2.1l.084-.252h8.484v1.848c0 .056-.056.168-.168.336l-4.62 5.88h4.536c.224 0 .336.112.336.336v2.1H32.42v-2.016c0-.056.028-.14.084-.252l4.62-5.88h-4.788z" opacity=".4"/>
</svg>
