<?xml version="1.0" encoding="utf-8"?>
<!-- Generator: Adobe Illustrator 23.1.1, SVG Export Plug-In . SVG Version: 6.00 Build 0)  -->
<svg version="1.1" id="Capa_1" xmlns="http://www.w3.org/2000/svg" xmlns:xlink="http://www.w3.org/1999/xlink" x="0px" y="0px"
	 viewBox="0 0 85 16" style="enable-background:new 0 0 85 16;" xml:space="preserve">
<style type="text/css">
	.st0{opacity:0.4;fill-rule:evenodd;clip-rule:evenodd;fill:#5A7C8E;enable-background:new    ;}
</style>
<path class="st0" d="M0.5,0.6h7.1c1,0,1.7,0.3,2.4,0.8C10.6,2,11,2.7,11.2,3.6s0,1.7-0.4,2.5S9.8,7.3,9,7.5L8.8,7.6
	c1.5,0.4,2.4,1.3,2.6,2.8c0.2,1.2,0,2.3-0.6,3.2S9.3,14.9,8.1,15c-0.3,0.1-0.9,0.1-1.7,0.1H0.5V0.6z M3.7,12.3L3.7,12.3l3,0.1
	c0.5-0.1,0.9-0.2,1.2-0.5c0.3-0.3,0.4-0.7,0.5-1.1S8.3,9.9,8,9.6C7.7,9.4,7.3,9.2,6.8,9.1H3.7V12.3z M3.6,6.3h3.2
	c0.7-0.1,1.1-0.4,1.2-1c0.1-0.6,0.1-1-0.3-1.4C7.5,3.5,7,3.2,6.5,3.3H3.6C3.6,3.3,3.6,6.3,3.6,6.3z M56.9,15.4
	c-0.6-0.1-1-0.2-1.1-0.2c-1.4-0.3-2.5-1.1-3.2-2.1s-1-2.3-0.8-3.7c0.2-2.4,1.4-3.9,3.5-4.7c1.6-0.6,3.2-0.4,4.6,0.3
	c1.4,0.8,2.3,2.2,2.6,4.1l0.1,1.7h-7.9c0.2,1,0.7,1.7,1.6,2c1.3,0.6,2.6,0.4,4-0.5l0.2-0.1c0-0.1,0-0.1,0.1-0.1l1.3,1.8l-1.2,0.8
	c-0.7,0.3-1.5,0.6-2.4,0.7C58.1,15.4,56.9,15.4,56.9,15.4z M59.7,8.8c0.1-0.7-0.2-1.2-0.8-1.6s-1.2-0.6-2-0.6
	c-0.6,0.1-1.2,0.3-1.7,0.8s-0.7,1-0.7,1.5H59.7z M68.2,15.4l-0.7-0.1l-0.7-0.2c-1-0.3-2-0.9-2.6-1.7c-0.7-0.8-1.1-1.8-1.1-2.9
	c-0.2-2.2,0.4-3.9,2-5.1c0.9-0.7,2-1,3.2-1.1c1.2-0.1,2.3,0.3,3.3,0.9c1.1,0.8,1.7,1.9,2,3.4c0.1,0.3,0.2,0.6,0.2,1v1.2h-7.8
	c0.1,0.6,0.3,1,0.7,1.4c0.8,0.8,1.8,1.1,3.1,0.8c0.8-0.1,1.5-0.4,2-0.9l1.3,1.8l-0.9,0.7c-0.8,0.4-1.7,0.7-2.6,0.8
	C69.5,15.3,68.2,15.3,68.2,15.4z M65.9,8.8h5.1c0.1-0.6-0.2-1.1-0.7-1.6s-1.2-0.7-1.9-0.7s-1.3,0.2-1.8,0.7S65.9,8.2,65.9,8.8z
	 M16.4,15.4c-0.6-0.1-0.9-0.2-1-0.2c-1-0.2-1.8-0.7-2.4-1.4s-0.9-1.6-0.9-2.7V4.6h2.8v6.1c0,1,0.4,1.7,1.1,2c1,0.4,1.8,0.4,2.6-0.3
	c0.5-0.3,0.8-0.9,0.8-1.8V4.6h2.7V11c0,1.2-0.4,2.2-1,3c-0.7,0.8-1.6,1.2-2.8,1.3l-0.4,0.1C17.8,15.4,16.4,15.4,16.4,15.4z
	 M42.7,15.1V0.6h10.1v2.3c0.1,0.3-0.1,0.4-0.3,0.4h-6.6v3h4.9c0.3,0,0.4,0.1,0.4,0.4V9h-5.3v6.1C45.8,15.1,42.7,15.1,42.7,15.1z
	 M74.4,15.1V4.9c0-0.2,0-0.3,0.1-0.4s0.2,0,0.4,0h2.3c0.9,0,1.7,0,2.3,0.1c2.4,0.2,3.9,1.3,4.7,3.3c0.4,1,0.4,2.2,0.2,3.3
	c-0.3,1.1-0.8,2-1.7,2.7c-1,0.8-2.1,1.2-3.4,1.3C79.3,15.1,74.4,15.1,74.4,15.1z M77.1,12.8h1.5c0.9,0,1.6-0.2,2.2-0.7
	s0.9-1.2,0.9-2.1c0.1-0.7,0-1.3-0.3-1.8s-0.7-1-1.3-1.2c-0.4-0.2-0.9-0.3-1.5-0.3h-1.5V12.8z M27.7,7H23V4.6h8.6v1.3
	c0,0.4-0.1,0.7-0.4,1l-4.5,5.7h4.9v2.4H23v-2c0-0.1,0.1-0.2,0.2-0.3l4.4-5.5C27.5,7.3,27.7,6.9,27.7,7z M32.3,7V4.9l0.1-0.3h8.5v1.8
	c0,0.1-0.1,0.2-0.2,0.3l-4.6,5.9h4.5c0.2,0,0.3,0.1,0.3,0.3v2.1h-8.6v-2c0-0.1,0-0.1,0.1-0.3L37.1,7C37.1,7,32.3,7,32.3,7z"/>
</svg>
