<?xml version="1.0" encoding="utf-8"?>
<!-- Generator: Adobe Illustrator 23.1.1, SVG Export Plug-In . SVG Version: 6.00 Build 0)  -->
<svg version="1.1" id="Capa_1" xmlns="http://www.w3.org/2000/svg" xmlns:xlink="http://www.w3.org/1999/xlink" x="0px" y="0px"
	 viewBox="0 0 84 23" style="enable-background:new 0 0 84 23;" xml:space="preserve">
<style type="text/css">
	.st0{opacity:0.4;fill-rule:evenodd;clip-rule:evenodd;fill:#5A7C8E;enable-background:new    ;}
</style>
<path class="st0" d="M7.7,2.4h4.5l0.5,0.2C13.8,3,14.8,4,15.5,5.4c0.2,0.4,0.3,0.8,0.4,1.1L16.1,7c0.1,0,0.2,0,0.4-0.1L17,6.8
	l-0.2-5.7H0v0.7l0.6,0.1c0.6,0.1,1,0.2,1.3,0.4C2.3,2.5,2.6,3,2.8,3.8C3,4.8,3.1,7.7,3.1,12.4C3,15,3,16.7,2.9,17.6
	s-0.2,1.6-0.3,2.1C2.4,20.5,1.8,21,1,21.2l-0.9,0.2V22h10.8v-0.7c-0.2,0-0.5-0.1-1-0.2S9.1,21,9,20.9c-0.4-0.2-0.7-0.6-0.9-1.1
	s-0.3-1.2-0.4-2.2c-0.1-0.7-0.1-1.8-0.2-3.3s-0.1-2.3,0-2.3s0.5,0,1.4,0s1.4,0.1,1.6,0.1c0.8,0.2,1.4,1,1.8,2.3l0.2,0.6h0.7V8h-0.7
	c-0.1,0-0.1,0-0.1,0.1c0,0.3-0.2,0.8-0.5,1.5s-0.8,1.1-1.4,1.2c-0.2,0.1-0.8,0.1-1.6,0.2S7.6,11,7.5,11c-0.1-0.1-0.1-1.4,0-4.1
	S7.7,2.7,7.7,2.4C7.7,2.5,7.7,2.4,7.7,2.4z M27.4,8.4c-1.2-1.2-2.9-1.8-4.9-1.8c-2.2,0-3.9,0.7-5.3,2c-1.5,1.5-2.2,3.5-2.2,6
	s0.7,4.4,2,5.8c0.7,0.7,1.5,1.2,2.5,1.6c0.5,0.1,1.1,0.2,1.6,0.3h1.3c0.7,0,1.3-0.1,1.6-0.2c1-0.2,1.9-0.6,2.7-1.2
	c1.8-1.4,2.8-3.5,2.9-6.2S29,9.9,27.4,8.4z M24.3,20.1c-0.3,0.7-0.8,1.1-1.3,1.2c-0.8,0.3-1.5,0-2.1-0.8s-1-2-1.3-3.6
	c-0.1-0.6-0.1-1.4-0.1-2.6s0.1-2,0.2-2.6c0.3-2.7,1.1-4,2.4-4c0.5,0,1,0.2,1.3,0.6c1.1,1.1,1.6,3.3,1.6,6.5
	C25.1,17.2,24.8,19,24.3,20.1z M83.6,15.5c-0.3-0.6-0.7-1-1.2-1.4c-0.5-0.4-1.3-0.8-2.4-1.2c-1.6-0.7-2.6-1.3-2.9-1.8
	c-0.3-0.3-0.4-0.8-0.4-1.3c0-0.8,0.3-1.4,0.9-1.8c0.6-0.4,1.3-0.4,2.1-0.3s1.5,0.8,2.1,1.7c0.3,0.6,0.6,1.2,0.8,1.8
	c0,0.1,0.1,0.1,0.3,0l0.3-0.1V7.4l-0.3-0.1C82.4,7.1,81.8,7,81,6.8c-0.4-0.1-1.1-0.1-2-0.1s-1.6,0-2,0.1c-1.7,0.5-2.8,1.4-3.4,2.7
	c-0.3,0.6-0.4,1.3-0.4,2c0,1.1,0.3,2,1,2.7c0.5,0.6,1.4,1.1,2.6,1.6c1.2,0.4,2.1,0.9,2.6,1.3c0.2,0.2,0.4,0.4,0.5,0.7l0.3,0.4v0.6
	c0,0.3-0.1,0.6-0.3,1c-0.4,1-1.2,1.5-2.5,1.3c-0.8-0.1-1.5-0.4-2.1-0.9s-1.2-1.4-1.7-2.6c-0.1-0.3-0.2-0.4-0.3-0.5s-0.2,0-0.3,0
	h-0.2l0.1,3.9c0,0.3,0,0.4,0.1,0.5s0.5,0.2,1.2,0.3s1.4,0.3,2,0.3c1.2,0.2,2.2,0.2,3.1,0c1.3-0.2,2.3-0.6,3.2-1.3
	c0.8-0.7,1.3-1.5,1.6-2.6S84,16.4,83.6,15.5L83.6,15.5z M67.9,7c-0.6-0.3-1.4-0.4-2.3-0.4c-2,0-3.7,0.7-5,2.1c-1,1-1.7,2.4-2.1,4
	c-0.1,0.3-0.1,1-0.1,1.8s0,1.5,0.1,1.8c0.3,1.6,1,2.9,2.1,3.9s2.3,1.7,3.8,1.9c0.8,0.2,1.7,0.2,2.6,0c1.5-0.2,2.7-0.8,3.7-1.8
	c0.5-0.5,0.7-0.8,0.7-1s-0.1-0.2-0.2-0.2s-0.2,0.1-0.5,0.2c-0.4,0.3-0.7,0.5-1.1,0.5c-0.4,0.1-0.8,0.2-1.2,0.2
	c-1.1,0.1-2.1-0.1-3-0.5c-0.4-0.2-0.7-0.5-1.1-0.8c-0.4-0.3-0.6-0.7-0.8-1c-0.5-1-0.8-2.2-0.8-3.4c-0.1-0.4-0.1-0.7,0-0.7
	s1.6,0,4.5,0h4.5v-0.3c0-0.6-0.1-1.2-0.3-2C70.9,9.1,69.7,7.7,67.9,7z M67.1,12.5h-1l-3.3,0.1v-0.3c0-0.2,0-0.4,0.1-0.8
	c0.2-1.2,0.5-2.2,1-2.9c0.4-0.7,0.9-1,1.5-1c1,0,1.6,1.4,1.8,4.1C67.1,11.7,67.1,12.5,67.1,12.5z M41.9,6.8
	c-0.4-0.2-0.9-0.2-1.3-0.2h-0.2c-1.6,0.1-2.8,1-3.8,2.8c-0.2,0.4-0.4,0.6-0.4,0.6s-0.1-0.6,0-1.7V6.6l-2.8,0.6
	c-2.3,0.4-3.5,0.7-3.5,0.7s0,0.1,0,0.3v0.2l0.6,0.1c0.5,0.1,0.9,0.3,1,0.6c0.2,0.3,0.3,0.7,0.4,1.3c0.1,0.9,0.2,2.6,0.1,5.1
	c0,2.5-0.1,4-0.2,4.5s-0.3,0.8-0.7,1l-0.8,0.3l-0.5,0.1V22h8.8v-0.7l-0.4-0.1c-0.6-0.1-0.9-0.1-1.1-0.2s-0.4-0.2-0.5-0.5
	c-0.2-0.3-0.3-0.8-0.3-1.5c-0.1-0.8-0.1-2.3-0.1-4.6v-3.4l0.1-0.2c0.3-0.3,0.7-0.5,1.2-0.6c1-0.2,1.9,0,2.8,0.4
	c0.3,0.2,0.5,0.2,0.5,0.2L42.1,7C42.2,7,42.1,6.9,41.9,6.8z M56,10c-0.4-0.8-0.9-1.4-1.6-2c-0.6-0.5-1.4-0.9-2.2-1
	c-0.6-0.2-1.3-0.2-2-0.1c-0.7,0.1-1.3,0.3-1.9,0.5c-0.4,0.2-0.6,0.3-0.7,0.3s-0.1-1.2-0.1-3.5l0.1-3.5l-6.2,1.2
	c-0.1,0.1-0.2,0.1-0.1,0.3s0,0.2,0,0.3l0.3,0.1c0.4,0.1,0.6,0.1,0.8,0.2s0.3,0.2,0.4,0.3c0.3,0.3,0.5,0.9,0.6,1.8
	c0.1,0.4,0.1,2.9,0.1,7.6s0,7.4-0.1,8.4v1.2l0.6,0.1c2.5,0.6,4.6,0.7,6.2,0.5c1.8-0.3,3.2-1,4.4-2c1.6-1.6,2.4-3.9,2.4-6.7
	C56.9,12.2,56.6,11,56,10z M52.2,16c-0.3,2.2-0.9,3.7-1.8,4.6c-0.3,0.3-0.7,0.5-1.2,0.6c-0.2,0.1-0.5,0.1-0.9,0
	c-0.2,0-0.3-0.1-0.4-0.2s-0.1-1.5-0.1-4.1s-0.1-4.6,0-6.1V8.7l0.4-0.1c0.3-0.1,0.6-0.2,0.9-0.2s0.7,0.1,1,0.3
	c1.1,0.5,1.8,1.7,2.1,3.7c0.1,0.4,0.1,1,0.1,1.8S52.3,15.6,52.2,16z"/>
</svg>
