<svg xmlns="http://www.w3.org/2000/svg" width="84" height="23" viewBox="0 0 84 23">
    <path fill="#5A7C8E" fill-rule="evenodd" d="M7.728 2.528h4.452l.504.168c1.176.448 2.128 1.4 2.856 2.856.168.448.308.812.42 1.092l.168.504c.056 0 .196-.028.42-.084l.504-.168-.168-5.712H0v.672l.588.084c.616.056 1.036.196 1.26.42.448.28.756.784.924 1.512.224 1.064.336 3.948.336 8.652-.056 2.576-.112 4.298-.168 5.166-.056.868-.168 1.554-.336 2.058-.224.84-.756 1.344-1.596 1.512l-.924.168v.672h10.752v-.672c-.168 0-.49-.056-.966-.168-.476-.112-.77-.196-.882-.252-.392-.224-.686-.588-.882-1.092-.196-.504-.322-1.232-.378-2.184-.056-.672-.112-1.764-.168-3.276-.056-1.512-.056-2.282 0-2.31.056-.028.518-.014 1.386.042.868.056 1.386.084 1.554.084.84.224 1.428.98 1.764 2.268l.168.588h.672V8.156h-.672c-.056 0-.084.028-.084.084 0 .336-.154.84-.462 1.512-.308.672-.77 1.064-1.386 1.176-.224.056-.756.112-1.596.168-.84.056-1.288.056-1.344 0-.056-.056-.056-1.428 0-4.116.056-2.688.112-4.144.168-4.368v-.084zm19.656 5.964c-1.232-1.176-2.856-1.764-4.872-1.764-2.184 0-3.948.672-5.292 2.016-1.456 1.512-2.184 3.5-2.184 5.964 0 2.464.672 4.396 2.016 5.796.672.672 1.512 1.204 2.52 1.596a47 47 0 0 0 1.596.336h1.26c.728 0 1.26-.056 1.596-.168a7.289 7.289 0 0 0 2.688-1.176c1.848-1.4 2.828-3.472 2.94-6.216.112-2.744-.644-4.872-2.268-6.384zm-3.108 11.676c-.336.672-.756 1.064-1.26 1.176-.84.28-1.54.028-2.1-.756s-.98-1.988-1.26-3.612c-.056-.56-.084-1.414-.084-2.562s.056-2.03.168-2.646c.28-2.688 1.092-4.032 2.436-4.032.504 0 .952.196 1.344.588 1.064 1.12 1.596 3.276 1.596 6.468 0 2.52-.28 4.312-.84 5.376zm59.388-4.536a3.756 3.756 0 0 0-1.176-1.386c-.504-.364-1.288-.77-2.352-1.218-1.624-.672-2.604-1.26-2.94-1.764-.28-.336-.42-.784-.42-1.344 0-.84.294-1.442.882-1.806.588-.364 1.288-.448 2.1-.252s1.498.77 2.058 1.722c.336.56.616 1.176.84 1.848 0 .056.084.056.252 0l.252-.084V7.484l-.252-.084c-.448-.168-1.092-.336-1.932-.504-.392-.056-1.064-.084-2.016-.084s-1.624.028-2.016.084c-1.68.504-2.828 1.4-3.444 2.688a4.814 4.814 0 0 0-.42 2.016c0 1.12.336 2.016 1.008 2.688.504.616 1.372 1.148 2.604 1.596 1.232.448 2.1.868 2.604 1.26.224.168.392.392.504.672l.252.42v.63c0 .308-.084.63-.252.966-.392 1.008-1.232 1.456-2.52 1.344-.784-.056-1.484-.364-2.1-.924-.616-.56-1.176-1.428-1.68-2.604-.112-.28-.196-.434-.252-.462-.056-.028-.168-.014-.336.042h-.168l.084 3.948c0 .28.042.448.126.504.084.056.476.168 1.176.336s1.358.28 1.974.336c1.176.168 2.212.168 3.108 0 1.288-.168 2.338-.588 3.15-1.26.812-.672 1.33-1.54 1.554-2.604.224-1.064.14-2.016-.252-2.856zM67.872 7.148c-.616-.28-1.372-.42-2.268-.42-2.016 0-3.696.7-5.04 2.1-1.008 1.008-1.708 2.352-2.1 4.032-.056.336-.084.952-.084 1.848 0 .896.028 1.512.084 1.848.336 1.568 1.022 2.856 2.058 3.864 1.036 1.008 2.31 1.652 3.822 1.932.84.168 1.708.168 2.604 0 1.456-.224 2.688-.812 3.696-1.764.504-.504.728-.826.672-.966-.056-.14-.126-.21-.21-.21-.084 0-.238.056-.462.168-.392.28-.742.462-1.05.546a8.265 8.265 0 0 1-1.218.21c-1.12.112-2.128-.056-3.024-.504a4.65 4.65 0 0 1-1.05-.756c-.364-.336-.63-.672-.798-1.008-.504-1.008-.784-2.156-.84-3.444-.056-.448-.056-.686 0-.714.056-.028 1.568-.042 4.536-.042h4.452v-.252c0-.56-.084-1.232-.252-2.016-.504-2.352-1.68-3.836-3.528-4.452zm-.756 5.46h-1.008l-3.276.084v-.252c0-.168.028-.42.084-.756.224-1.232.546-2.198.966-2.898.42-.7.91-1.05 1.47-1.05 1.008 0 1.596 1.372 1.764 4.116v.756zm-25.2-5.712a2.792 2.792 0 0 0-1.344-.168h-.168c-1.568.056-2.828.98-3.78 2.772-.224.392-.364.588-.42.588-.056 0-.056-.56 0-1.68v-1.68l-2.772.588c-2.296.448-3.458.686-3.486.714-.028.028-.042.112-.042.252v.21l.588.084c.504.112.854.308 1.05.588.196.28.322.728.378 1.344.112.896.154 2.59.126 5.082-.028 2.492-.098 3.99-.21 4.494-.112.504-.336.84-.672 1.008l-.756.252-.504.084v.672h8.82v-.672l-.42-.084c-.56-.056-.938-.112-1.134-.168-.196-.056-.378-.21-.546-.462-.168-.252-.28-.756-.336-1.512-.056-.756-.084-2.282-.084-4.578V11.18l.084-.168c.28-.28.672-.476 1.176-.588.952-.168 1.876-.028 2.772.42.336.168.504.224.504.168l1.428-3.864c.056-.056-.028-.14-.252-.252zm14.112 3.192a5.78 5.78 0 0 0-1.596-1.974 5.267 5.267 0 0 0-2.184-1.05 4.643 4.643 0 0 0-1.974-.084c-.7.112-1.33.28-1.89.504-.392.168-.616.252-.672.252-.056 0-.084-1.176-.084-3.528L47.712.68l-6.216 1.176c-.112.056-.154.14-.126.252.028.112.042.196.042.252l.252.084c.392.056.644.112.756.168.112.056.252.168.42.336.336.336.532.924.588 1.764.056.392.084 2.912.084 7.56s-.028 7.448-.084 8.4v1.176l.588.084c2.52.56 4.592.728 6.216.504 1.792-.28 3.248-.952 4.368-2.016 1.624-1.624 2.408-3.864 2.352-6.72-.056-1.344-.364-2.548-.924-3.612zm-3.78 6.048c-.28 2.184-.896 3.724-1.848 4.62a1.973 1.973 0 0 1-1.176.588c-.224.056-.532.056-.924 0-.224 0-.35-.056-.378-.168-.028-.112-.07-1.47-.126-4.074-.056-2.604-.056-4.634 0-6.09V8.828l.42-.084c.28-.112.588-.168.924-.168.336 0 .672.084 1.008.252 1.064.504 1.764 1.736 2.1 3.696.056.392.084.98.084 1.764s-.028 1.4-.084 1.848z" opacity=".4"/>
</svg>
