<?xml version="1.0" encoding="utf-8"?>
<!-- Generator: Adobe Illustrator 23.1.1, SVG Export Plug-In . SVG Version: 6.00 Build 0)  -->
<svg version="1.1" id="Capa_1" xmlns="http://www.w3.org/2000/svg" xmlns:xlink="http://www.w3.org/1999/xlink" x="0px" y="0px"
	 viewBox="0 0 85 24" style="enable-background:new 0 0 85 24;" xml:space="preserve">
<style type="text/css">
	.st0{opacity:0.4;fill-rule:evenodd;clip-rule:evenodd;fill:#5A7C8E;enable-background:new    ;}
</style>
<path class="st0" d="M63.5,13.1L63.5,13.1l3.7-6.5h-2.3l-3.4,5.7l-0.3,0.5v0.3l0.2,0.4l3.9,6.7h2.2C67.4,20.3,63.5,13.1,63.5,13.1z
	 M59,1v19.2H61V0.9H59V1z M84.1,6.8c-0.1-0.1-0.3-0.1-0.4-0.2l-0.3-0.1c-0.2-0.1-0.5-0.1-0.8-0.1h-0.3l-1.1,0.3L80.5,7l-0.9,0.8
	l-0.7,0.9l-0.4,1.3l-0.1,10.4h1.9v-9.7c0-0.6,0.2-1.1,0.7-1.5l0.3-0.3c0.2-0.2,0.5-0.3,0.8-0.3h2.4L84.5,7C84.5,7,84.1,6.8,84.1,6.8
	z M76,10.2V10l-0.3-0.9l-0.3-0.5l-0.8-1.1l-1.4-0.8l-1.2-0.2h-0.4l-0.8,0.3l-1.2,0.6L69,8l-0.7,1.3l-0.2,0.8v6.7l0.3,1.1l0.3,0.7
	v0.1l0.4,0.7l0.4,0.4l0.8,0.4l0.8,0.3h1.1l2.4-0.3l-0.2-1.5L72,18.5l-0.6-0.1L70.8,18l-0.3-0.3l-0.3-0.5l-0.1-0.4v-2.4H75
	c0.3,0,0.5-0.1,0.7-0.3c0.2-0.2,0.3-0.4,0.3-0.7C76,13.6,76,10.2,76,10.2z M74.1,10.4v2.1h-3.9v-2.1c0-0.4,0.1-0.8,0.4-1.2
	c0.3-0.3,0.6-0.6,1-0.7c0.2-0.1,0.4-0.1,0.6-0.1h0.3l0.4,0.2L73.4,9l0.3,0.3l0.2,0.3C73.9,9.7,74.1,10.4,74.1,10.4z M56.8,10.3v-0.2
	l-0.2-0.9l-0.3-0.6l-0.4-0.8l-0.4-0.3L55,7.2l-1-0.5l-1.2-0.3l-0.3,0.1h-0.3l-0.6,0.2h-0.1l-1.3,0.8L49.8,8l-0.3,0.5l-0.3,0.9
	C49,9.7,49,10,49,10.4l0.1,6.8l0.3,1l0.4,0.7l0.6,0.7l0.6,0.4l0.9,0.4l1.1,0.2l1.2-0.3l0.8-0.4l0.8-0.7l0.7-1.1l0.3-1.3l-1.9-0.1
	l-0.1,0.2c0,0.1,0,0.3-0.1,0.4c-0.1,0.3-0.3,0.6-0.7,0.9c-0.3,0.3-0.8,0.4-1.2,0.4l-0.3-0.1l-0.7-0.3l-0.4-0.4l-0.3-0.6l-0.2-0.6
	v-6.2c0.1-0.6,0.3-1.1,0.8-1.4c0.3-0.3,0.7-0.5,1.2-0.5l0.3,0.1l0.8,0.3l0.4,0.3c-0.1,0-0.1,0,0,0l0.3,0.3l0.2,0.5v0.7l0.2,0.1
	l1.8-0.1L56.8,10.3L56.8,10.3L56.8,10.3z M46.4,10.4L46.4,10.4l-0.1-0.5l-0.5-1.3l-0.7-1l-0.5-0.4l-0.8-0.4l-1.2-0.3h-0.8l-0.7,0.1
	L39.8,7h-0.1l0.1,1.5l2.7-0.2h-0.1h0.8l0.5,0.3l0.4,0.5l0.3,0.6v2.1L42,11.5l-1.8,0.6l-1,0.9l-0.7,1.5l-0.1,2.4l0.2,0.8l0.2,0.3
	l0.6,1l1,0.8l0.9,0.4l1.1,0.2c0.8,0,1.5-0.3,2.2-0.8c0.5-0.3,0.9-0.8,1.2-1.3c0.3-0.6,0.4-1.2,0.4-1.8v-6
	C46.3,10.6,46.4,10.5,46.4,10.4L46.4,10.4z M44.4,13.5v3.1c0,0.2-0.1,0.4-0.2,0.6c-0.1,0.3-0.3,0.6-0.6,0.9c-0.3,0.3-0.6,0.4-1,0.5
	h-0.2l-0.6-0.1L41.2,18l-0.4-0.5l-0.3-0.6v-1.8c0-0.6,0.2-1,0.5-1.4c0.4-0.4,0.8-0.5,1.4-0.5h1.8L44.4,13.5
	C44.3,13.5,44.4,13.5,44.4,13.5z M36.2,10.5l-0.1-0.2l-0.2-1.2l-0.4-0.9l-0.7-0.8L34.2,7l-0.7-0.3l-0.6-0.2h-1.3h0.1l-1.3,0.3V0.9
	h-1.9v19.4h1.9V8.7l2.4,0.1L33.4,9l0.4,0.3v0.1l0.3,0.5l0.1,0.3v10.1h2L36.2,10.5C36.3,10.6,36.2,10.5,36.2,10.5z M26,10.2V9.7
	l-0.3-0.9l-0.6-1.1H25l-0.4-0.4l-0.8-0.6l-1.8-0.5H21l-1.3,0.6l-0.9,0.8l-0.7,0.9l-0.4,0.9c-0.1,0.3-0.1,0.7-0.1,1v6.4l0.2,0.8
	l0.5,1.1l0.1,0.3l0.7,0.8l0.7,0.4l0.9,0.3l1.2,0.1l3.1-0.4l-0.2-2.6h-3l-0.6-0.3l-0.3-0.3l-0.3-0.5v-1.5h3.9c0.4,0,0.8-0.2,1.1-0.5
	c0.3-0.3,0.4-0.7,0.4-1.1C26,13.3,26,10.2,26,10.2z M23,11.9h-2.4v-1.5c0-0.3,0.1-0.5,0.3-0.8c0.2-0.2,0.5-0.3,0.8-0.3l0.5,0.1
	l0.4,0.4l0.3,0.6C23,10.4,23,11.9,23,11.9z M16.4,0.9L16.4,0.9l-0.3-0.2l-1.6-0.3l-1,0.3l-0.8,0.4l-0.8,0.6l-0.7,0.8l-0.6,1.3
	l-0.1,0.5l-0.1,19.2l3.1-0.2V12.2H16V9.1h-2.3V5c0-0.3,0.1-0.6,0.3-0.8c0.2-0.2,0.5-0.3,0.8-0.3h1.4C16.3,3.8,16.4,0.9,16.4,0.9z
	 M0.5,1v19.3h3.1V1.2L0.7,1L0.5,1z M8.8,3.6L8.7,3.2L8.3,2.6L7.6,2.2L7.1,2.1L6.5,2.2L6.3,2.3L5.7,2.7L5.4,3.3L5.3,4.2l0.3,0.5
	L6,5.3l0.3,0.2l0.7,0.2l0.4-0.1l0.6-0.3l0.4-0.4l0.3-1C8.8,3.9,8.8,3.6,8.8,3.6z M5.5,6.4v13.9h3.1V6.5L5.5,6.4L5.5,6.4z"/>
</svg>
