<svg xmlns="http://www.w3.org/2000/svg" width="85" height="24" viewBox="0 0 85 24">
    <path fill="#5A7C8E" fill-rule="evenodd" d="M63.5 12.692l-.084-.084 3.78-6.384h-2.268l-3.444 5.712-.252.504v.252l.168.42 3.864 6.72h2.184l-3.948-7.14zM59.048.596v19.236h1.932V.428h-1.932v.168zM84.08 6.392a3.26 3.26 0 0 0-.42-.168l-.336-.084a3.893 3.893 0 0 0-.756-.084h-.336l-1.092.252-.672.252-.924.756-.672.924-.42 1.26-.084 10.416H80.3v-9.744c0-.616.224-1.12.672-1.512l.252-.252c.224-.168.476-.28.756-.336h2.436L84.5 6.56l-.42-.168zm-8.064 3.36v-.168l-.252-.924-.252-.504-.84-1.092-1.428-.84-1.176-.168h-.42l-.84.252-1.176.588-.672.672-.672 1.26-.168.84v6.72l.252 1.092.336.672v.084l.42.672.42.42.756.42.84.252h1.092l2.436-.336-.168-1.512-2.52-.084-.588-.084-.588-.42-.252-.252-.252-.504-.084-.42v-2.352h4.788c.28 0 .518-.084.714-.252a.84.84 0 0 0 .294-.672v-3.36zm-1.932.252v2.1H70.22v-2.1c0-.448.126-.84.378-1.176.252-.336.574-.56.966-.672.168-.056.364-.084.588-.084h.336l.42.168.504.336.336.336.168.336.168.756zM56.78 9.836v-.168l-.168-.924-.336-.588-.42-.756-.42-.336-.42-.336-1.008-.504-1.176-.252-.252.084h-.336l-.588.168h-.084l-1.344.84-.42.504-.336.504-.336.924c-.112.28-.168.588-.168.924l.084 6.804.252 1.008.42.672.588.672.588.42.924.42 1.092.168 1.176-.252.84-.42.84-.672.672-1.092.336-1.344-1.932-.084-.084.168a.935.935 0 0 1-.084.42c-.112.336-.336.63-.672.882a1.906 1.906 0 0 1-1.176.378l-.336-.084-.672-.252-.42-.42-.336-.588-.168-.588V9.92c.056-.616.308-1.092.756-1.428.336-.336.728-.504 1.176-.504l.336.084.756.252.42.336c-.056 0-.056 0 0 0l.252.336.168.504v.672l.168.084 1.848-.084-.084-.42.084.084zm-10.416.168V9.92l-.084-.42-.504-1.26-.672-1.008-.504-.42-.756-.42-1.176-.336h-.84l-.672.084-1.344.42h-.084l.084 1.512 2.688-.168h-.084.756l.504.252.42.504.252.588v2.1l-2.352-.252-1.764.588-1.008.924-.672 1.512-.084 2.352.168.84.168.336.588 1.008 1.008.84.924.42 1.092.168c.784 0 1.512-.252 2.184-.756a3.422 3.422 0 0 0 1.176-1.344c.28-.56.42-1.176.42-1.848v-5.964c.112-.056.168-.112.168-.168zm-1.932 3.024v3.108c0 .168-.056.364-.168.588-.112.336-.308.63-.588.882-.28.252-.616.406-1.008.462H42.5l-.588-.084-.672-.42-.42-.504-.252-.588v-1.764c0-.56.182-1.022.546-1.386.364-.364.826-.546 1.386-.546h1.848v.252h.084zm-8.232-2.94l-.084-.168-.168-1.176-.42-.924-.672-.756-.672-.504-.672-.336-.588-.168h-1.26.084l-1.344.252V.428h-1.932v19.404h1.932V8.24l2.352.084.672.252.42.336v.084l.336.504.084.336v10.08h2.016v-9.744l-.084-.084zm-10.164-.336v-.504l-.336-.924-.588-1.092h-.084l-.42-.42-.756-.588-1.764-.504h-1.092l-1.344.588-.924.756-.672.924-.42.924a6.122 6.122 0 0 0-.084 1.008v6.384l.168.756.504 1.092.084.252.672.756.672.42.924.336 1.176.084 3.108-.42-.168-2.604h-3.024l-.588-.252-.252-.252-.252-.504v-1.512h3.948c.448 0 .812-.154 1.092-.462.28-.308.42-.686.42-1.134V9.752zm-3.024 1.68H20.66V9.92c0-.28.112-.532.336-.756a1.14 1.14 0 0 1 .84-.336l.504.084.42.42.252.588v1.512zM16.376.428l-.084-.084-.168-.084-1.596-.252L13.52.26l-.84.42-.756.588-.672.84-.588 1.344-.084.504-.084 19.152 3.108-.168V11.768h2.352V8.66h-2.268V4.544c0-.336.112-.616.336-.84a1.14 1.14 0 0 1 .84-.336h1.428l.084-2.94zM.5.512v19.32h3.108V.764L.668.596.5.512zM8.816 3.2l-.084-.42-.42-.672-.756-.336-.504-.084-.504.084-.252.084-.588.42-.336.588-.084.924.252.504.504.588.336.168.672.168.42-.084.588-.252.42-.42.336-1.008V3.2zM5.54 5.972v13.86h3.108V6.056L5.54 5.888v.084z" opacity=".4"/>
</svg>
