<?xml version="1.0" encoding="utf-8"?>
<!-- Generator: Adobe Illustrator 23.1.1, SVG Export Plug-In . SVG Version: 6.00 Build 0)  -->
<svg version="1.1" id="Capa_1" xmlns="http://www.w3.org/2000/svg" xmlns:xlink="http://www.w3.org/1999/xlink" x="0px" y="0px"
	 viewBox="0 0 85 15" style="enable-background:new 0 0 85 15;" xml:space="preserve">
<style type="text/css">
	.st0{opacity:0.4;fill-rule:evenodd;clip-rule:evenodd;fill:#5A7C8E;enable-background:new    ;}
</style>
<path class="st0" d="M8.6,8.2L5.6,0.4H0.5v14.1h3.7V5.1l3.6,9.4h1.6l3.5-9.4v9.4h3.6V0.4h-5C11.5,0.4,8.6,8.2,8.6,8.2z M22.4,4
	c-1.9,0-3.5,0.5-4.7,1.6L19,7.8c0.8-0.7,1.8-1.1,2.9-1.1c0.6,0,1.1,0.1,1.5,0.4s0.5,0.6,0.5,1.1v1c-0.3-0.3-0.7-0.6-1.3-0.8
	C22,8.1,21.4,8,20.7,8c-1,0-1.7,0.3-2.4,0.8c-0.8,0.6-1.2,1.4-1.2,2.5s0.4,2,1.2,2.6c0.7,0.5,1.5,0.8,2.4,0.8c0.6,0,1.2-0.1,1.8-0.3
	s1-0.5,1.3-0.9v1.1h3.3V8c0-1.5-0.5-2.5-1.4-3.2C24.9,4.3,23.7,4,22.4,4C22.3,4,22.4,4,22.4,4z M23.9,11.8c-0.3,0.5-0.9,0.8-1.8,0.8
	c-0.5,0-0.9-0.1-1.2-0.3s-0.5-0.5-0.5-0.9s0.2-0.7,0.5-0.9s0.7-0.3,1.2-0.3c0.8,0,1.4,0.2,1.8,0.7V11.8z M30.9,7.2
	c0-0.2,0.1-0.3,0.3-0.5s0.5-0.2,0.9-0.2c0.6,0,1.1,0.1,1.7,0.3s1,0.5,1.3,0.8l1.3-2.3C35.2,4.4,33.8,4,32.2,4c-1.3,0-2.4,0.3-3.2,1
	c-0.8,0.6-1.2,1.4-1.2,2.4c0,0.7,0.2,1.3,0.5,1.8s0.9,0.8,1.5,1.1c0.4,0.2,1,0.3,1.8,0.4l1.5,0.3c0.4,0.2,0.6,0.3,0.6,0.5
	c0,0.5-0.4,0.8-1.3,0.8c-0.6,0-1.3-0.1-2-0.4c-0.7-0.3-1.2-0.6-1.6-0.9L27.4,13c0.6,0.5,1.3,0.9,2.1,1.2s1.8,0.4,2.6,0.4
	c1.5,0,2.6-0.3,3.4-0.9s1.2-1.4,1.2-2.4c0-0.7-0.2-1.3-0.5-1.8c-0.4-0.5-0.9-0.9-1.5-1.1c-0.4-0.2-1-0.3-1.8-0.4l-1.5-0.3
	C31.1,7.6,30.9,7.4,30.9,7.2z M44,4c-1.4,0-2.6,0.5-3.5,1.5V0.4h-3.3v14.1h3.3V7.8c0.6-0.7,1.3-1,1.9-1c1.1,0,1.7,0.6,1.7,1.7v6h3.3
	V7.2c0-1-0.3-1.8-0.8-2.4S45.1,4,44,4z M53,4c-1.8,0-3.4,0.5-4.6,1.6l1.3,2.2c0.8-0.7,1.8-1.1,2.8-1.1c0.7,0,1.2,0.1,1.5,0.4
	c0.3,0.3,0.5,0.6,0.5,1.1v1c-0.2-0.3-0.6-0.6-1.2-0.8C52.6,8.1,52,8,51.3,8c-0.9,0-1.7,0.3-2.3,0.8c-0.8,0.6-1.2,1.4-1.2,2.5
	s0.4,2,1.1,2.6c0.7,0.5,1.5,0.8,2.4,0.8c0.7,0,1.3-0.1,1.9-0.3s1-0.5,1.2-0.9v1.1h3.3V8C57.7,5.3,56.1,4,53,4z M54.4,11.8
	c-0.1,0.2-0.3,0.4-0.7,0.5s-0.7,0.2-1.1,0.2s-0.8-0.1-1.1-0.3s-0.5-0.5-0.5-0.9s0.2-0.7,0.5-0.9c0.3-0.2,0.7-0.3,1.1-0.3
	s0.8,0.1,1.1,0.2s0.6,0.3,0.7,0.5V11.8z M65.2,4c-1.3,0-2.3,0.5-3,1.4v-5h-3.3v14.1h3.3v-1.3c0.7,1,1.8,1.4,3.1,1.4
	c1.3,0,2.4-0.5,3.2-1.4c0.8-1,1.3-2.3,1.3-3.9s-0.4-3-1.3-3.9C67.6,4.4,66.5,4,65.2,4z M64.2,11.8c-0.4,0-0.8-0.1-1.1-0.3
	c-0.3-0.2-0.6-0.4-0.9-0.7V7.8c0.2-0.3,0.5-0.5,0.9-0.7c0.4-0.2,0.7-0.3,1.1-0.3c0.6,0,1.1,0.2,1.6,0.7s0.6,1.1,0.6,1.8
	s-0.2,1.4-0.6,1.8S64.8,11.8,64.2,11.8L64.2,11.8z M70.1,14.5h3.3V0.4h-3.3C70.1,0.4,70.1,14.5,70.1,14.5z M84.5,9.6
	c0-1.7-0.5-3-1.5-4.1S80.8,4,79.2,4s-2.8,0.5-3.9,1.5s-1.6,2.3-1.6,3.8c0,1.6,0.5,2.9,1.6,3.9s2.4,1.5,3.9,1.5
	c0.8,0,1.7-0.1,2.4-0.3s1.4-0.6,1.8-1l-1.4-2.1c-0.3,0.2-0.7,0.4-1.2,0.6c-0.5,0.2-0.9,0.3-1.3,0.3c-0.7,0-1.3-0.2-1.7-0.5
	c-0.4-0.3-0.7-0.7-0.9-1.1h7.3V9.6z M77.2,8.2c0.1-0.4,0.3-0.8,0.6-1.1c0.3-0.3,0.8-0.5,1.5-0.5s1.2,0.2,1.5,0.5s0.5,0.7,0.6,1.1
	H77.2z"/>
</svg>
