<svg xmlns="http://www.w3.org/2000/svg" width="85" height="15" viewBox="0 0 85 15">
    <path fill="#5A7C8E" fill-rule="evenodd" d="M8.564 8.272L5.624.46H.5v14.112h3.696V5.164l3.612 9.408h1.596l3.528-9.408v9.408h3.612V.46h-5.04l-2.94 7.812zm13.86-4.2c-1.904 0-3.472.532-4.704 1.596l1.26 2.184c.84-.728 1.792-1.092 2.856-1.092.616 0 1.106.14 1.47.42.364.28.546.644.546 1.092V9.28c-.28-.336-.7-.616-1.26-.84a4.933 4.933 0 0 0-1.848-.336c-.952 0-1.736.252-2.352.756-.784.56-1.176 1.386-1.176 2.478 0 1.092.392 1.974 1.176 2.646.672.504 1.456.756 2.352.756.616 0 1.218-.112 1.806-.336.588-.224 1.022-.532 1.302-.924v1.092h3.276V8.104c0-1.456-.476-2.52-1.428-3.192-.84-.56-1.96-.84-3.36-.84h.084zm1.428 7.812c-.336.504-.924.756-1.764.756-.504 0-.91-.098-1.218-.294-.308-.196-.462-.49-.462-.882s.154-.686.462-.882c.308-.196.714-.294 1.218-.294.84 0 1.428.224 1.764.672v.924zm7.056-4.62c0-.168.112-.322.336-.462.224-.14.532-.21.924-.21.56 0 1.12.112 1.68.336.56.224 1.008.476 1.344.756l1.26-2.268c-1.232-.896-2.66-1.344-4.284-1.344-1.344 0-2.408.322-3.192.966-.784.644-1.176 1.442-1.176 2.394 0 .728.182 1.33.546 1.806.364.476.854.826 1.47 1.05.448.168 1.036.308 1.764.42l1.512.252c.392.168.588.336.588.504 0 .504-.448.756-1.344.756-.616 0-1.274-.14-1.974-.42-.7-.28-1.246-.588-1.638-.924l-1.344 2.268c.56.504 1.274.896 2.142 1.176.868.28 1.75.42 2.646.42 1.456 0 2.59-.308 3.402-.924.812-.616 1.218-1.428 1.218-2.436 0-.728-.182-1.33-.546-1.806-.364-.476-.854-.854-1.47-1.134-.448-.168-1.036-.308-1.764-.42l-1.512-.252c-.392-.112-.588-.28-.588-.504zm13.104-3.192c-1.4 0-2.576.504-3.528 1.512V.46h-3.276v14.112h3.276V7.936c.616-.672 1.26-1.008 1.932-1.008 1.12 0 1.68.56 1.68 1.68v5.964h3.276V7.264c0-1.008-.28-1.792-.84-2.352-.56-.56-1.4-.84-2.52-.84zm8.988 0c-1.848 0-3.388.532-4.62 1.596l1.26 2.184c.84-.728 1.764-1.092 2.772-1.092.672 0 1.176.14 1.512.42.336.28.504.644.504 1.092V9.28c-.224-.336-.63-.616-1.218-.84a5.264 5.264 0 0 0-1.89-.336c-.896 0-1.652.252-2.268.756-.784.56-1.176 1.386-1.176 2.478 0 1.092.364 1.974 1.092 2.646.672.504 1.456.756 2.352.756.672 0 1.302-.112 1.89-.336.588-.224.994-.532 1.218-.924v1.092h3.276V8.104c0-2.688-1.568-4.032-4.704-4.032zm1.428 7.812c-.112.224-.336.406-.672.546s-.714.21-1.134.21c-.42 0-.784-.098-1.092-.294-.308-.196-.462-.49-.462-.882s.154-.686.462-.882c.308-.196.672-.294 1.092-.294.42 0 .798.056 1.134.168.336.112.56.28.672.504v.924zM65.18 4.072c-1.288 0-2.296.476-3.024 1.428V.46H58.88v14.112h3.276v-1.26c.728.952 1.75 1.428 3.066 1.428 1.316 0 2.394-.476 3.234-1.428.84-.952 1.26-2.254 1.26-3.906 0-1.652-.42-2.954-1.26-3.906-.84-.952-1.932-1.428-3.276-1.428zm-1.008 7.812c-.392 0-.77-.084-1.134-.252a2.387 2.387 0 0 1-.882-.672V7.852c.224-.28.518-.504.882-.672a2.677 2.677 0 0 1 1.134-.252c.616 0 1.134.224 1.554.672.42.448.63 1.05.63 1.806s-.21 1.358-.63 1.806c-.42.448-.966.672-1.638.672h.084zm5.964 2.688h3.276V.46h-3.276v14.112zM84.5 9.7c0-1.68-.49-3.038-1.47-4.074s-2.24-1.554-3.78-1.554c-1.54 0-2.828.504-3.864 1.512s-1.554 2.268-1.554 3.78c0 1.624.532 2.926 1.596 3.906s2.38 1.47 3.948 1.47c.84 0 1.652-.112 2.436-.336.784-.224 1.4-.56 1.848-1.008l-1.428-2.1c-.28.224-.672.434-1.176.63-.504.196-.924.294-1.26.294-.728 0-1.302-.154-1.722-.462a2.467 2.467 0 0 1-.882-1.134H84.5V9.7zm-7.308-1.428c.056-.448.252-.826.588-1.134.336-.308.84-.462 1.512-.462s1.176.168 1.512.504c.336.336.532.7.588 1.092h-4.2z" opacity=".4"/>
</svg>
