<svg xmlns="http://www.w3.org/2000/svg" width="85" height="23" viewBox="0 0 85 23">
    <path fill="#5A7C8E" fill-rule="evenodd" d="M84.5.176h-3.612l-2.352 5.796-2.1-5.796h-3.528l3.696 10.5-4.368 10.836 3.528.42 2.52-6.384 2.436 6.972 3.78.504-4.284-12.264L84.5.176zM65.852 21.008c.336.056 1.568.168 3.696.336V.176h-3.696v20.832zm-24.024-.84H45.44v-7.812h4.284V9.164H45.44V3.536h4.956V.176h-8.568v19.992zM28.136 3.536h3.276v16.8l3.612-.084V3.536h3.36V.176H28.136v3.36zm-19.404 9.66L4.112.176H.5v22.848c1.232-.168 2.38-.308 3.444-.42v-12.6l4.2 12.012 3.948-.336V.176h-3.36v13.02zm7.308 4.788v3.276c2.632-.224 5.488-.42 8.568-.588v-3.276a76.201 76.201 0 0 0-4.956.336v-5.376h4.284V9.164h-4.284V3.536h4.956V.176H16.04v17.808zM57.452.176h-3.528v20.16c2.744.112 5.6.252 8.568.42V17.48a116.472 116.472 0 0 0-5.04-.252V.176z" opacity=".4"/>
</svg>
