<?xml version="1.0" encoding="utf-8"?>
<!-- Generator: Adobe Illustrator 23.1.1, SVG Export Plug-In . SVG Version: 6.00 Build 0)  -->
<svg version="1.1" id="Capa_1" xmlns="http://www.w3.org/2000/svg" xmlns:xlink="http://www.w3.org/1999/xlink" x="0px" y="0px"
	 viewBox="0 0 85 23" style="enable-background:new 0 0 85 23;" xml:space="preserve">
<style type="text/css">
	.st0{opacity:0.4;fill-rule:evenodd;clip-rule:evenodd;fill:#5A7C8E;enable-background:new    ;}
</style>
<path class="st0" d="M84.5,0.1h-3.6l-2.4,5.8l-2.1-5.8h-3.5l3.7,10.5l-4.4,10.8l3.5,0.4l2.5-6.4l2.4,7l3.8,0.5l-4.3-12.3L84.5,0.1z
	 M65.9,20.9c0.3,0.1,1.6,0.2,3.7,0.3V0.1h-3.7C65.9,0.1,65.9,20.9,65.9,20.9z M41.8,20.1h3.6v-7.8h4.3V9.1h-4.3V3.4h5V0.1h-8.6
	C41.8,0.1,41.8,20.1,41.8,20.1z M28.1,3.4h3.3v16.8l3.6-0.1V3.4h3.4V0.1H28.1C28.1,0.1,28.1,3.4,28.1,3.4z M8.7,13.1l-4.6-13H0.5
	v22.8c1.2-0.2,2.4-0.3,3.4-0.4V9.9l4.2,12l3.9-0.3V0.1H8.7V13.1z M16,17.9v3.3c2.6-0.2,5.5-0.4,8.6-0.6v-3.3c-1.7,0.1-3.3,0.2-5,0.3
	v-5.4h4.3V9.1h-4.3V3.4h5V0.1H16V17.9z M57.5,0.1h-3.5v20.2c2.7,0.1,5.6,0.3,8.6,0.4v-3.3c-1.7-0.1-3.4-0.2-5-0.3V0.1z"/>
</svg>
