<?xml version="1.0" encoding="utf-8"?>
<!-- Generator: Adobe Illustrator 23.1.1, SVG Export Plug-In . SVG Version: 6.00 Build 0)  -->
<svg version="1.1" id="Capa_1" xmlns="http://www.w3.org/2000/svg" xmlns:xlink="http://www.w3.org/1999/xlink" x="0px" y="0px"
	 viewBox="0 0 149 26" style="enable-background:new 0 0 149 26;" xml:space="preserve">
<style type="text/css">
	.st0{fill-rule:evenodd;clip-rule:evenodd;fill:#FFFFFF;}
</style>
<g>
	<path class="st0" d="M11.9,1.1v10.3L4.6,1.1H1.3v19h4.4V9.8L13,20.1h3.3v-19H11.9L11.9,1.1z M20.5,5.3c1.3,0,2.4-1.1,2.4-2.4
		c0-1.3-1.1-2.4-2.4-2.4c-1.3,0-2.4,1.1-2.4,2.4C18,4.2,19.1,5.3,20.5,5.3L20.5,5.3z M18.4,20.1h4.1V6.5h-4.1V20.1z M32.6,6.1
		c-1.8,0-3.2,0.6-4.1,1.7V6.5h-4.1v19h4.1v-6.7c0.9,1,2.2,1.7,4.1,1.7c3.6,0,6.5-3.1,6.5-7.2S36.2,6.1,32.6,6.1z M31.8,16.6
		c-1.9,0-3.2-1.3-3.2-3.3s1.4-3.3,3.2-3.3s3.2,1.3,3.2,3.3S33.7,16.6,31.8,16.6z M48.6,6.1c-1.8,0-3.2,0.6-4.1,1.7V6.5h-4.1v19h4.1
		v-6.7c0.9,1,2.2,1.7,4.1,1.7c3.6,0,6.5-3.1,6.5-7.2S52.1,6.1,48.6,6.1z M47.8,16.6c-1.9,0-3.2-1.3-3.2-3.3s1.4-3.3,3.2-3.3
		s3.2,1.3,3.2,3.3S49.6,16.6,47.8,16.6z M65,6.5l-2.6,8.3l-3-8.3h-4.5l5.4,13c-0.6,1.7-1.5,2.3-3.4,2.3v3.8c3.8,0.2,6.2-1.5,7.8-5.8
		l4.7-13.2C69.3,6.5,65,6.5,65,6.5z"/>
	<path class="st0" d="M87.7,12h60v2h-60V12z"/>
</g>
</svg>
